# xmcd CD database file
#
# Track frame offsets:
#	150
#	20095
#	36459
#	54294
#	71061
#	90933
#	105440
#
# Disc length: 1623 seconds
#
# Revision: 0
# Processed by: cddbd v1.5.2PL0 Copyright (c) Steve Scherf et al.
# Submitted via: CDex 1.51
#
DISCID=53065507
DTITLE=Curly Ann - Curly Ann (EP)
DYEAR=2009
DGENRE=Country
TTITLE0=When I turn 40
TTITLE1=In this world
TTITLE2=Here we go
TTITLE3=Good times
TTITLE4=Silver stream
TTITLE5=Miss that man
TTITLE6=Doin alright
EXTD=YEAR: 2009
EXTT0=
EXTT1=
EXTT2=
EXTT3=
EXTT4=
EXTT5=
EXTT6=
PLAYORDER=
